HIERARCHY
ROOT Hips
{
	OFFSET 0.000000 0.000000 0.000000
	CHANNELS 6 Xposition Yposition Zposition Zrotation Yrotation Xrotation 
	JOINT LowerBack
	{
		OFFSET 0.000000 0.000000 0.000000
		CHANNELS 3 Zrotation Yrotation Xrotation
		JOINT Spine
		{
			OFFSET 0.028270 2.035590 -0.193380
			CHANNELS 3 Zrotation Yrotation Xrotation
			JOINT Spine1
			{
				OFFSET 0.056720 2.048850 -0.042750
				CHANNELS 3 Zrotation Yrotation Xrotation
				JOINT Neck
				{
					OFFSET 0.000000 0.000000 0.000000
					CHANNELS 3 Zrotation Yrotation Xrotation
					JOINT Neck1
					{
						OFFSET -0.054170 1.746240 0.172020
						CHANNELS 3 Zrotation Yrotation Xrotation
						JOINT Head
						{
							OFFSET 0.104070 1.761360 -0.123970
							CHANNELS 3 Zrotation Yrotation Xrotation
							End Site
							{
								OFFSET 0.000000 0.000000 0.000000
							}
						}
					}
				}
				JOINT LeftShoulder
				{
					OFFSET 0.000000 0.000000 0.000000
					CHANNELS 3 Zrotation Yrotation Xrotation
					JOINT LeftArm
					{
						OFFSET 3.362410 1.200890 -0.311210
						CHANNELS 3 Zrotation Yrotation Xrotation
						JOINT LeftForeArm
						{
							OFFSET 4.983000 -0.000000 -0.000000
							CHANNELS 3 Zrotation Yrotation Xrotation
							JOINT LeftHand
							{
								OFFSET 3.483560 -0.000000 -0.000000
								CHANNELS 3 Zrotation Yrotation Xrotation
								JOINT LeftFingerBase
								{
									OFFSET 0.000000 0.000000 0.000000
									CHANNELS 3 Zrotation Yrotation Xrotation
									JOINT LeftHandIndex1
									{
										OFFSET 0.715260 -0.000000 -0.000000
										CHANNELS 3 Zrotation Yrotation Xrotation
										End Site
										{
											OFFSET 0.000000 0.000000 0.000000
										}
									}
								}
								JOINT LThumb
								{
									OFFSET 0.000000 0.000000 0.000000
									CHANNELS 3 Zrotation Yrotation Xrotation
									End Site
									{
										OFFSET 0.000000 0.000000 0.000000
									}
								}
							}
						}
					}
				}
				JOINT RightShoulder
				{
					OFFSET 0.000000 0.000000 0.000000
					CHANNELS 3 Zrotation Yrotation Xrotation
					JOINT RightArm
					{
						OFFSET -3.136600 1.374050 -0.404650
						CHANNELS 3 Zrotation Yrotation Xrotation
						JOINT RightForeArm
						{
							OFFSET -5.241900 -0.000000 -0.000000
							CHANNELS 3 Zrotation Yrotation Xrotation
							JOINT RightHand
							{
								OFFSET -3.444170 -0.000000 -0.000000
								CHANNELS 3 Zrotation Yrotation Xrotation
								JOINT RightFingerBase
								{
									OFFSET 0.000000 0.000000 0.000000
									CHANNELS 3 Zrotation Yrotation Xrotation
									JOINT RightHandIndex1
									{
										OFFSET -0.622530 -0.000000 -0.000000
										CHANNELS 3 Zrotation Yrotation Xrotation
										End Site
										{
											OFFSET 0.000000 0.000000 0.000000
										}
									}
								}
								JOINT RThumb
								{
									OFFSET 0.000000 0.000000 0.000000
									CHANNELS 3 Zrotation Yrotation Xrotation
									End Site
									{
										OFFSET 0.000000 0.000000 0.000000
									}
								}
							}
						}
					}
				}
			}
		}
	}
}
}
MOTION
Frames: 10
Frame Time: 0.008333
0.140188 16.384982 -2.427656 -96.043246 85.021388 -75.151151 2.043260 0.398151 -0.873732 1.075639 0.392904 -4.419146 0.918895 0.514519 -6.571948 -5.735451 -4.854485 -7.732387 1.606033 0.126105 -0.002822 0.000000 0.000000 0.000000 7.042909 1.904674 -3.179351 -30.886483 -61.481885 -59.676740 5.151319 -46.439060 -0.551589 50.016000 -3.227441 -1.899369 -0.864455 0.788187 0.000000 0.000000 0.000000 0.000000 0.000000 0.000000 0.000000 -21.198626 -1.322583 2.084336 -105.869440 73.738076 -171.013489 -6.498211 8.132317 -0.078100 -7.038107 18.958452 -1.273307 0.145111 -1.050026 -0.000000 0.000000 0.000000 0.000000 0.000000 0.000000 0.000000 
0.363501 16.496105 -2.526384 -98.015466 84.549362 -77.058532 2.651921 0.289401 -1.063330 1.215701 0.237595 -4.355893 0.938296 0.341258 -6.131946 -5.478567 -5.006886 -7.948146 1.600612 0.130596 -0.070590 0.000000 0.000000 0.000000 7.178888 1.480909 -2.618191 -30.222789 -60.782856 -56.810704 5.320240 -42.244253 -0.505305 45.947524 -0.596777 -0.566356 -0.842448 0.717235 0.000000 0.000000 0.000000 0.000000 0.000000 0.000000 0.000000 -20.917456 -1.270999 2.255419 -104.576902 73.287906 -164.836022 -5.857745 8.820232 -0.078895 -8.184730 18.888264 -1.480129 0.200145 -1.042344 -0.000000 0.000000 0.000000 0.000000 0.000000 0.000000 0.000000 
0.586733 16.610024 -2.625402 -100.991844 84.058318 -79.971662 3.231836 0.125095 -1.315467 1.357241 0.026329 -4.273609 0.956951 0.104885 -5.553336 -5.123784 -5.168629 -8.210086 1.600501 0.136571 -0.153079 0.000000 0.000000 0.000000 7.392100 0.937557 -2.017456 -28.772597 -60.193824 -54.076561 5.318724 -37.662172 -0.434951 40.011740 1.713059 0.395444 -0.781490 0.640339 0.000000 0.000000 0.000000 0.000000 0.000000 0.000000 0.000000 -20.527598 -1.165169 2.609611 -102.265529 72.567652 -157.006709 -5.014511 9.797909 -0.078087 -9.280887 18.506152 -1.647888 0.253412 -1.017344 -0.000000 0.000000 0.000000 0.000000 0.000000 0.000000 0.000000 
0.809817 16.725753 -2.724285 -104.789287 83.543153 -83.706244 3.774602 -0.065463 -1.618336 1.490033 -0.211306 -4.182087 0.945018 -0.162227 -4.882483 -4.678742 -5.348206 -8.479300 1.607352 0.143349 -0.238851 0.000000 0.000000 0.000000 7.646966 0.242249 -1.350547 -26.760188 -59.777582 -51.420581 5.080041 -32.965237 -0.341879 32.609043 3.402667 0.845399 -0.670370 0.559306 0.000000 0.000000 0.000000 0.000000 0.000000 0.000000 0.000000 -20.049227 -1.024323 3.039644 -99.085344 71.710136 -147.946132 -4.041757 11.134668 -0.075920 -10.251450 17.905770 -1.762590 0.299629 -0.977294 -0.000000 0.000000 0.000000 0.000000 0.000000 0.000000 0.000000 
1.032739 16.842514 -2.822798 -109.210770 82.988709 -88.059509 4.284059 -0.249557 -1.948032 1.606533 -0.442435 -4.095082 0.877149 -0.422601 -4.195789 -4.163543 -5.558151 -8.713324 1.619722 0.149900 -0.315237 0.000000 0.000000 0.000000 7.923621 -0.606814 -0.611221 -24.473523 -59.564985 -48.713642 4.579340 -28.411965 -0.237682 24.433210 4.359543 0.855867 -0.512807 0.477618 0.000000 0.000000 0.000000 0.000000 0.000000 0.000000 0.000000 -19.504981 -0.888946 3.414384 -95.344999 70.881356 -138.306231 -3.071941 12.826765 -0.072997 -11.038448 17.189518 -1.821458 0.334258 -0.927460 -0.000000 0.000000 0.000000 0.000000 0.000000 0.000000 0.000000 
1.255648 16.959538 -2.920843 -114.026854 82.371725 -92.793547 4.772592 -0.407266 -2.278027 1.705448 -0.647025 -4.024417 0.747136 -0.652024 -3.567329 -3.606707 -5.810622 -8.886855 1.633909 0.155352 -0.374464 0.000000 0.000000 0.000000 8.226352 -1.568605 0.165624 -22.247677 -59.534693 -45.674954 3.851117 -24.235963 -0.140198 16.297532 4.754858 0.635451 -0.331532 0.397498 0.000000 0.000000 0.000000 0.000000 0.000000 0.000000 0.000000 -18.913293 -0.814329 3.651195 -91.413218 70.190553 -128.799929 -2.232445 14.779497 -0.070059 -11.619821 16.438293 -1.831629 0.355740 -0.874610 -0.000000 0.000000 0.000000 0.000000 0.000000 0.000000 0.000000 
1.478829 17.075852 -3.018369 -118.987951 81.670001 -97.652676 5.253689 -0.539011 -2.587384 1.791188 -0.825307 -3.975584 0.568916 -0.848979 -3.039945 -3.036920 -6.115665 -9.000999 1.646542 0.159428 -0.416501 0.000000 0.000000 0.000000 8.575852 -2.565668 0.917240 -20.410460 -59.628114 -41.865787 2.975955 -20.651361 -0.063273 8.847490 4.964270 0.365297 -0.156549 0.318077 0.000000 0.000000 0.000000 0.000000 0.000000 0.000000 0.000000 -18.292035 -0.850591 3.742963 -87.634807 69.659650 -120.025868 -1.587089 16.848156 -0.067611 -12.000652 15.704273 -1.804428 0.365457 -0.824630 -0.000000 0.000000 0.000000 0.000000 0.000000 0.000000 0.000000 
1.702590 17.190228 -3.115332 -123.849334 80.870010 -102.389739 5.736600 -0.658019 -2.868436 1.870293 -0.990413 -3.947579 0.364852 -1.027438 -2.616774 -2.476284 -6.478706 -9.075821 1.656029 0.162422 -0.447003 0.000000 0.000000 0.000000 8.990598 -3.502226 1.589777 -19.188441 -59.790463 -36.830475 2.042672 -17.851948 -0.010778 2.360457 5.362593 0.105838 -0.008036 0.236679 -0.000000 0.000000 0.000000 0.000000 0.000000 0.000000 0.000000 -17.660701 -1.023978 3.730607 -84.253246 69.249412 -112.331736 -1.130167 18.904352 -0.065776 -12.202587 15.012786 -1.751369 0.366320 -0.780862 -0.000000 0.000000 0.000000 0.000000 0.000000 0.000000 0.000000 
1.927361 17.301147 -3.211469 -128.418101 79.975116 -106.811591 6.222732 -0.777482 -3.126800 1.947644 -1.155518 -3.935530 0.154355 -1.202641 -2.273234 -1.939392 -6.899641 -9.136585 1.662740 0.164914 -0.473337 0.000000 0.000000 0.000000 9.472132 -4.288225 2.163828 -18.622822 -59.991362 -30.326751 1.118574 -15.996165 0.020615 -3.251971 6.172545 -0.176671 0.110134 0.151005 -0.000000 0.000000 0.000000 0.000000 0.000000 0.000000 0.000000 -17.039524 -1.336359 3.661234 -81.384682 68.911000 -105.818721 -0.820710 20.869464 -0.064429 -12.251020 14.371385 -1.680948 0.361156 -0.744219 -0.000000 0.000000 0.000000 0.000000 0.000000 0.000000 0.000000 
2.153641 17.406889 -3.306643 -132.572690 79.000323 -110.796839 6.705919 -0.902392 -3.377865 2.024742 -1.325710 -3.933935 -0.051482 -1.381618 -1.974994 -1.434625 -7.372111 -9.203662 1.667798 0.167442 -0.501532 0.000000 0.000000 0.000000 10.002141 -4.861965 2.651891 -18.552186 -60.220540 -22.495719 0.248224 -15.180783 0.035911 -8.299116 7.435939 -0.548458 0.205345 0.060575 -0.000000 0.000000 0.000000 0.000000 0.000000 0.000000 0.000000 -16.444318 -1.773033 3.567911 -79.025146 68.605397 -100.404802 -0.613117 22.710724 -0.063341 -12.169094 13.777853 -1.599054 0.352059 -0.714140 -0.000000 0.000000 0.000000 0.000000 0.000000 0.000000 0.000000 
